<svg
    width="67"
    height="62"
    viewBox="0 0 67 62"
    fill="none"
    xmlns="http://www.w3.org/2000/svg">
    <path
        d="M13.8098 13.0591C13.8098 5.86744 19.7096 0.0425415 26.9937 0.0425415C34.2778 0.0425415 40.1776 5.86744 40.1776 13.0591C40.1776 20.2507 34.2778 26.0756 26.9937 26.0756C19.7096 26.0756 13.8098 20.2507 13.8098 13.0591ZM33.5856 46.2512C33.5856 43.1273 35.2336 40.1985 37.5408 38.2461V34.2109C37.5408 34.0482 37.6067 33.853 37.6067 33.6903C34.3437 32.9744 30.784 32.5839 26.9937 32.5839C12.4255 32.5839 0.625916 38.4088 0.625916 45.6004V52.1087H33.5856V46.2512ZM66.5453 46.5766V57.9661C66.5453 59.9186 64.5677 61.8711 62.2606 61.8711H44.1327C42.1551 61.8711 40.1776 59.9186 40.1776 57.6407V46.2512C40.1776 44.2987 42.1551 42.3463 44.1327 42.3463V34.2109C44.1327 29.6551 48.7471 26.0756 53.3614 26.0756C57.9758 26.0756 62.5902 29.6551 62.5902 34.2109V35.838H58.3054V34.2109C58.3054 31.6076 55.9982 29.9806 53.3614 29.9806C50.7247 29.9806 48.4175 31.6076 48.4175 34.2109V42.3463H62.5902C64.5677 42.3463 66.5453 44.2987 66.5453 46.5766Z"
        fill="#F8F8F8"/>
</svg>