<svg
    width="71"
    height="51"
    viewBox="0 0 71 51"
    fill="none"
    xmlns="http://www.w3.org/2000/svg">
    <path
        d="M45.1866 32.1227C36.6023 32.1227 19.7516 36.2034 19.7516 44.6788V50.9568H70.6215V44.6788C70.6215 36.2034 53.7709 32.1227 45.1866 32.1227ZM45.1866 25.8447C48.5594 25.8447 51.7942 24.5218 54.1792 22.1671C56.5642 19.8124 57.904 16.6187 57.904 13.2887C57.904 9.95858 56.5642 6.7649 54.1792 4.41019C51.7942 2.05547 48.5594 0.732605 45.1866 0.732605C41.8137 0.732605 38.5789 2.05547 36.1939 4.41019C33.809 6.7649 32.4691 9.95858 32.4691 13.2887C32.4691 16.6187 33.809 19.8124 36.1939 22.1671C38.5789 24.5218 41.8137 25.8447 45.1866 25.8447ZM13.3929 35.2617L11.4852 33.6922C5.12649 27.7281 0.675369 23.9613 0.675369 19.2528C0.675369 15.486 3.85474 12.3469 7.66999 12.3469C9.89555 12.3469 12.1211 13.2887 13.3929 14.8582C14.6646 13.2887 16.8902 12.3469 19.1157 12.3469C22.931 12.3469 26.1103 15.1721 26.1103 19.2528C26.1103 23.9613 21.6592 27.7281 15.3005 33.6922L13.3929 35.2617Z"
        fill="white"/>
</svg>